<?xml version="1.0" encoding="utf-8"?>
<!-- Generator: Adobe Illustrator 25.0.0, SVG Export Plug-In . SVG Version: 6.00 Build 0)  -->
<svg version="1.1" xmlns="http://www.w3.org/2000/svg" xmlns:xlink="http://www.w3.org/1999/xlink" x="0px" y="0px"
	 viewBox="0 0 180 50" style="enable-background:new 0 0 180 50;" xml:space="preserve">
<style type="text/css">
	.st0{display:none;}
	.st1{display:inline;}
	.st2{fill:#2B3340;}
	.st3{clip-path:url(#SVGID_2_);}
	.st4{clip-path:url(#SVGID_4_);fill:#AAA6AA;}
	.st5{clip-path:url(#SVGID_4_);fill:#AAA4AB;}
	.st6{clip-path:url(#SVGID_6_);}
	.st7{clip-path:url(#SVGID_8_);fill:#AAA6AA;}
	.st8{clip-path:url(#SVGID_8_);fill:#AAA4AB;}
	.st9{clip-path:url(#SVGID_10_);}
	.st10{clip-path:url(#SVGID_12_);fill:#AAA6AA;}
	.st11{clip-path:url(#SVGID_12_);fill:#AAA4AB;}
	.st12{clip-path:url(#SVGID_14_);}
	.st13{clip-path:url(#SVGID_16_);}
	.st14{clip-path:url(#SVGID_18_);}
	.st15{fill:#71809B;}
	.st16{fill:#FFFFFF;}
	.st17{display:inline;fill:#71809B;}
</style>
<g id="Слой_1" class="st0">
	<g class="st1">
		<g>
			<path class="st2" d="M79.5,18c0.7-0.5,1.5-1.8,1.1-4.1c-0.5-2.8-3.9-2.7-4-2.7H62v13.7h4.3V14.4l9,0c0.5,0,0.8,0.1,1,0.2
				c0.2,0.2,0.1,0.4,0.1,0.4l0,0.8c0,0.1,0,0.2-0.1,0.3c-0.2,0.2-0.7,0.2-0.9,0.2h-9.1l3.3,3.3h5.9c0.4,0,0.6,0.1,0.8,0.2
				c0.1,0.1,0.1,0.2,0.1,0.3l0,0.9c0,0.2,0,0.3-0.1,0.4c-0.1,0.2-0.4,0.2-0.4,0.2h-9.6l3.2,3.2h8c0.9,0,1.7-0.3,2.2-0.9
				c1.1-1.2,1-3,0.9-3.4C80.6,19.5,80.2,18.6,79.5,18z"/>
			<rect x="55.4" y="11.2" class="st2" width="4.2" height="13.7"/>
			<polygon class="st2" points="102.4,14.5 109.4,14.5 109.5,24.9 113.9,24.9 113.9,14.5 120.9,14.5 120.9,11.2 102.4,11.2 			"/>
			<polygon class="st2" points="180,14.4 180,11.1 163.5,11.1 163.5,24.8 180,24.8 180,21.6 167.8,21.6 167.8,19.6 177.3,19.6 
				177.2,16.3 167.8,16.3 167.8,14.4 			"/>
			<path class="st2" d="M160,19c0.1,0,0.1-0.1,0.2-0.1c1-0.5,1.1-0.7,0.9-3.9c0-1.2-0.3-2.2-1-2.8c-1.1-1-2.8-0.9-2.9-0.9l-14.7-0.1
				V25l4.3-0.1v-7.4l3.4,3.2h6c0.3,0,0.5,0.1,0.7,0.2c0.2,0.2,0.1,0.6,0.1,0.6l0,3.4h4.2l0-3.5C161.2,21.5,161.4,19.8,160,19z
				 M146.8,14.5h8.9c0.9,0,1.2,0.2,1.3,0.3c0.1,0.2,0.1,0.3,0.1,0.3l0,1.4c0,0.4-0.1,0.6-0.3,0.8c-0.2,0.1-0.5,0.1-0.5,0.1l-9.5,0
				V14.5z"/>
			<polygon class="st2" points="48.7,11.2 40,16.2 40,11.2 35.6,11.2 35.6,24.8 39.9,24.9 39.9,19.8 48.5,24.9 55.1,24.9 43.5,18 
				55.2,11.2 			"/>
			<path class="st2" d="M101,19.5c-0.4-3.2-3.5-3-3.5-3h-9.8c-0.7,0-1.2-0.1-1.2-1.2c0-1.1,0.6-1.1,0.6-1.1h13.1v-2.8H87.6
				c-2.3-0.2-3.3,0.3-4.2,1.1c-0.9,0.9-0.7,3-0.7,3v1.1c0.4,3,3.3,2.9,3.3,2.9h10.2c1.3,0,1,0.8,1,0.8v0.6c0.1,0.9-0.8,1-0.8,1H83
				v2.9h14.2c3.8,0.3,3.8-3.2,3.8-3.2V19.5z"/>
			<path class="st2" d="M136.4,11.2l-10.1,0c-0.1,0-1.8-0.1-3,1c-0.8,0.7-1.2,1.7-1.2,3.1c0,1.2,0,2.2,0,3.2c0,1.9,0,2.8,0,2.8
				c0,0,0.1,3.4,4.6,3.7l9.8,0c0,0,4.2-0.3,4.2-4.6l0-5.1C140.6,15.2,140.1,11.2,136.4,11.2z M136.4,20.7c0,0,0.1,0.3-0.1,0.5
				c-0.1,0.2-0.4,0.3-0.8,0.3l-8.8,0c0,0-0.1,0-0.2-0.1c-0.1-0.1-0.2-0.3-0.2-0.5l0-5.9c0-0.1,0.1-0.7,0.9-0.7l8.4,0
				c0,0,0.8,0.1,0.8,0.9L136.4,20.7L136.4,20.7z"/>
		</g>
		<g>
			<defs>
				<polygon id="SVGID_1_" points="20,34.1 27,39.9 26.7,6.5 20,0.8 				"/>
			</defs>
			<clipPath id="SVGID_2_">
				<use xlink:href="#SVGID_1_"  style="overflow:visible;"/>
			</clipPath>
			<g class="st3">
				<g>
					<defs>
						<rect id="SVGID_3_" x="20" y="0.8" width="7" height="39.2"/>
					</defs>
					<clipPath id="SVGID_4_">
						<use xlink:href="#SVGID_3_"  style="overflow:visible;"/>
					</clipPath>
					<path class="st4" d="M20,0.8v39.2V0.8z"/>
					<rect x="20" y="0.8" class="st4" width="3.5" height="39.2"/>
					<rect x="23.5" y="0.8" class="st5" width="3.5" height="39.2"/>
				</g>
			</g>
		</g>
		<g>
			<defs>
				<polygon id="SVGID_5_" points="0,33.7 7,39.6 6.7,6.1 0,0.4 				"/>
			</defs>
			<clipPath id="SVGID_6_">
				<use xlink:href="#SVGID_5_"  style="overflow:visible;"/>
			</clipPath>
			<g class="st6">
				<g>
					<defs>
						<rect id="SVGID_7_" x="0" y="0.4" width="7" height="39.2"/>
					</defs>
					<clipPath id="SVGID_8_">
						<use xlink:href="#SVGID_7_"  style="overflow:visible;"/>
					</clipPath>
					<rect x="0" y="0.4" class="st7" width="0" height="39.2"/>
					<rect x="0" y="0.4" class="st7" width="3.5" height="39.2"/>
					<rect x="3.5" y="0.4" class="st8" width="3.5" height="39.2"/>
				</g>
			</g>
		</g>
		<g>
			<defs>
				<polygon id="SVGID_9_" points="10.2,10.4 10.8,43.4 17,49.1 16.3,15.1 10.2,9.7 				"/>
			</defs>
			<clipPath id="SVGID_10_">
				<use xlink:href="#SVGID_9_"  style="overflow:visible;"/>
			</clipPath>
			<g class="st9">
				<g>
					<defs>
						<rect id="SVGID_11_" x="10.2" y="9.7" width="6.8" height="39.3"/>
					</defs>
					<clipPath id="SVGID_12_">
						<use xlink:href="#SVGID_11_"  style="overflow:visible;"/>
					</clipPath>
					<rect x="10.2" y="9.7" class="st10" width="3.4" height="39.3"/>
					<rect x="13.6" y="9.7" class="st11" width="3.4" height="39.3"/>
					<rect x="17" y="9.7" class="st11" width="0" height="39.3"/>
				</g>
			</g>
		</g>
		<g>
			<defs>
				<polygon id="SVGID_13_" points="20.7,34.6 27.7,40.5 27.3,7 20.7,1.3 				"/>
			</defs>
			<clipPath id="SVGID_14_">
				<use xlink:href="#SVGID_13_"  style="overflow:visible;"/>
			</clipPath>
			<g class="st12">
				
					<rect x="4.5" y="17" transform="matrix(1.760222e-02 -0.9998 0.9998 1.760222e-02 2.8426 44.6676)" class="st2" width="39.3" height="7.7"/>
			</g>
		</g>
		<g>
			<defs>
				<polygon id="SVGID_15_" points="0.7,34.3 7.7,40.2 7.3,6.7 0.7,1 				"/>
			</defs>
			<clipPath id="SVGID_16_">
				<use xlink:href="#SVGID_15_"  style="overflow:visible;"/>
			</clipPath>
			<g class="st13">
				
					<rect x="-15.5" y="16.7" transform="matrix(1.760217e-02 -0.9998 0.9998 1.760217e-02 -16.4707 24.3593)" class="st2" width="39.3" height="7.7"/>
			</g>
		</g>
		<g>
			<defs>
				<polygon id="SVGID_17_" points="10.8,10.9 11.5,43.9 17.7,49.6 17,15.7 10.8,10.3 				"/>
			</defs>
			<clipPath id="SVGID_18_">
				<use xlink:href="#SVGID_17_"  style="overflow:visible;"/>
			</clipPath>
			<g class="st14">
				
					<rect x="-5.5" y="26.2" transform="matrix(1.760224e-02 -0.9998 0.9998 1.760224e-02 -15.9544 43.6576)" class="st2" width="39.5" height="7.5"/>
			</g>
		</g>
		<g>
			<g>
				<path class="st15" d="M39.8,28.2v0.9h-2.6v5.1h-1.1v-6H39.8z"/>
			</g>
			<g>
				<path class="st15" d="M41,28.2v2.5c0,1,0,1.6-0.1,2.4l0,0c0.4-0.7,0.6-1.2,1-1.9l1.8-3.1h1.3v6h-1v-2.6c0-1,0-1.5,0.1-2.5h0
					c-0.4,0.8-0.6,1.3-1,1.9c-0.6,0.9-1.2,2.1-1.8,3.2H40v-6H41z"/>
			</g>
			<g>
				<path class="st15" d="M51.7,28.2v6h-1.1v-5.2h-2.8v5.2h-1.1v-6H51.7z"/>
			</g>
			<g>
				<path class="st15" d="M54,31.5c0,1.5,1,2.1,2,2.1c0.8,0,1.2-0.1,1.6-0.3l0.2,0.8c-0.4,0.2-1,0.4-2,0.4c-1.8,0-2.9-1.2-2.9-3
					c0-1.8,1.1-3.3,2.8-3.3c1.9,0,2.4,1.7,2.4,2.8c0,0.2,0,0.4,0,0.5H54z M57.2,30.7c0-0.7-0.3-1.8-1.5-1.8c-1.1,0-1.6,1-1.7,1.8
					H57.2z"/>
			</g>
			<g>
				<path class="st15" d="M59.6,30.2c0-0.8,0-1.4,0-2h1l0,1h0c0.4-0.7,1.1-1.2,2.1-1.2c1.4,0,2.5,1.2,2.5,3.1c0,2.2-1.3,3.2-2.7,3.2
					c-0.8,0-1.5-0.3-1.8-0.9h0v3.3h-1.1V30.2z M60.6,31.8c0,0.2,0,0.3,0,0.4c0.2,0.8,0.8,1.3,1.6,1.3c1.1,0,1.8-0.9,1.8-2.3
					c0-1.2-0.6-2.2-1.8-2.2c-0.7,0-1.4,0.5-1.6,1.4c0,0.1-0.1,0.3-0.1,0.4V31.8z"/>
			</g>
			<g>
				<path class="st15" d="M66.6,28.2h1.3l1.1,3c0.1,0.4,0.4,1.2,0.5,1.7h0c0.1-0.4,0.5-1.4,0.7-2.1l1-2.6h1.3l0.4,6h-1l-0.1-2.9
					c0-0.6-0.1-1.4-0.1-2.2h0c-0.2,0.5-0.3,1-0.6,2l-1.1,3h-0.8l-1.1-3c-0.2-0.6-0.4-1.4-0.6-2h0c0,0.7-0.1,1.5-0.1,2.2l-0.1,2.9h-1
					L66.6,28.2z"/>
			</g>
			<g>
				<path class="st15" d="M77.6,34.3l-0.1-0.8h0c-0.3,0.5-1,0.9-1.8,0.9c-1.2,0-1.8-0.9-1.8-1.7c0-1.5,1.3-2.3,3.6-2.2v-0.1
					c0-0.5-0.1-1.4-1.3-1.4c-0.6,0-1.1,0.2-1.5,0.4l-0.2-0.7c0.5-0.3,1.2-0.5,1.9-0.5c1.8,0,2.3,1.3,2.3,2.5v2.3c0,0.5,0,1,0.1,1.4
					H77.6z M77.5,31.2c-1.2,0-2.5,0.2-2.5,1.4c0,0.7,0.5,1,1,1c0.8,0,1.3-0.5,1.4-1c0-0.1,0.1-0.2,0.1-0.3V31.2z"/>
			</g>
			<g>
				<path class="st15" d="M80.3,30.2c0-0.8,0-1.4,0-2h1l0,1h0c0.4-0.7,1.1-1.2,2.1-1.2c1.4,0,2.5,1.2,2.5,3.1c0,2.2-1.3,3.2-2.7,3.2
					c-0.8,0-1.5-0.3-1.8-0.9h0v3.3h-1.1V30.2z M81.3,31.8c0,0.2,0,0.3,0,0.4c0.2,0.8,0.8,1.3,1.6,1.3c1.1,0,1.8-0.9,1.8-2.3
					c0-1.2-0.6-2.2-1.8-2.2c-0.7,0-1.4,0.5-1.6,1.4c0,0.1-0.1,0.3-0.1,0.4V31.8z"/>
			</g>
			<g>
				<path class="st15" d="M88.3,28.2v2.6h0.3l2.2-2.6h1.3L89.5,31c1,0.1,1.5,0.7,2,1.8c0.2,0.4,0.4,1,0.6,1.5H91
					c-0.2-0.3-0.4-0.7-0.6-1.2c-0.4-1-1-1.4-2-1.4h-0.2v2.7h-1.1v-6H88.3z"/>
			</g>
			<g>
				<path class="st15" d="M93.6,31.5c0,1.5,1,2.1,2,2.1c0.8,0,1.2-0.1,1.6-0.3l0.2,0.8c-0.4,0.2-1,0.4-2,0.4c-1.8,0-2.9-1.2-2.9-3
					c0-1.8,1.1-3.3,2.8-3.3c1.9,0,2.4,1.7,2.4,2.8c0,0.2,0,0.4,0,0.5H93.6z M96.8,30.7c0-0.7-0.3-1.8-1.5-1.8c-1.1,0-1.6,1-1.7,1.8
					H96.8z"/>
			</g>
			<g>
				<path class="st15" d="M103.1,28.2v0.9h-1.8v5.2h-1.1v-5.2h-1.8v-0.9H103.1z"/>
			</g>
			<g>
				<path class="st15" d="M110.9,34c-0.3,0.1-0.9,0.3-1.7,0.3c-1.8,0-2.9-1.2-2.9-3.1c0-1.9,1.2-3.2,3.2-3.2c0.6,0,1.2,0.2,1.5,0.3
					l-0.2,0.8c-0.3-0.1-0.7-0.3-1.2-0.3c-1.4,0-2.1,1-2.1,2.3c0,1.4,0.9,2.3,2.1,2.3c0.6,0,1-0.2,1.3-0.3L110.9,34z"/>
			</g>
			<g>
				<path class="st15" d="M113.2,28.2v2.5c0,1,0,1.6-0.1,2.4l0,0c0.4-0.7,0.6-1.2,1-1.9l1.8-3.1h1.3v6h-1v-2.6c0-1,0-1.5,0.1-2.5h0
					c-0.4,0.8-0.6,1.3-1,1.9c-0.6,0.9-1.2,2.1-1.8,3.2h-1.2v-6H113.2z"/>
			</g>
			<g>
				<path class="st15" d="M123.2,34c-0.3,0.1-0.9,0.3-1.7,0.3c-1.8,0-2.9-1.2-2.9-3.1c0-1.9,1.2-3.2,3.2-3.2c0.6,0,1.2,0.2,1.5,0.3
					l-0.2,0.8c-0.3-0.1-0.7-0.3-1.2-0.3c-1.4,0-2.1,1-2.1,2.3c0,1.4,0.9,2.3,2.1,2.3c0.6,0,1-0.2,1.3-0.3L123.2,34z"/>
			</g>
			<g>
				<path class="st15" d="M128.5,28.2v0.9h-1.8v5.2h-1.1v-5.2h-1.8v-0.9H128.5z"/>
			</g>
			<g>
				<path class="st15" d="M130.1,31.5c0,1.5,1,2.1,2,2.1c0.8,0,1.2-0.1,1.6-0.3l0.2,0.8c-0.4,0.2-1,0.4-2,0.4c-1.8,0-2.9-1.2-2.9-3
					c0-1.8,1.1-3.3,2.8-3.3c1.9,0,2.4,1.7,2.4,2.8c0,0.2,0,0.4,0,0.5H130.1z M133.2,30.7c0-0.7-0.3-1.8-1.5-1.8
					c-1.1,0-1.6,1-1.7,1.8H133.2z"/>
			</g>
			<g>
				<path class="st15" d="M135.7,28.2h1.3l1.1,3c0.1,0.4,0.4,1.2,0.5,1.7h0c0.1-0.4,0.5-1.4,0.7-2.1l1-2.6h1.3l0.4,6h-1l-0.1-2.9
					c0-0.6-0.1-1.4-0.1-2.2h0c-0.2,0.5-0.3,1-0.6,2l-1.1,3h-0.8l-1.1-3c-0.2-0.6-0.4-1.4-0.6-2h0c0,0.7-0.1,1.5-0.1,2.2l-0.1,2.9h-1
					L135.7,28.2z"/>
			</g>
		</g>
		<g>
			<g>
				<path class="st15" d="M40.6,36.2c-0.3,0.1-0.9,0.2-1.3,0.3c-1,0.1-1.7,0.5-2.1,1.1c-0.4,0.5-0.6,1.3-0.7,1.9h0
					c0.4-0.8,1.2-1.3,2.1-1.3c1.5,0,2.6,1,2.6,2.9c0,1.9-1,3.1-2.8,3.1c-2.1,0-2.8-2-2.8-3.9c0-1.3,0.3-2.4,0.9-3.2
					c0.6-0.8,1.4-1.2,2.6-1.4c0.5-0.1,1.1-0.2,1.5-0.3L40.6,36.2z M38.4,39c-0.6,0-1.1,0.3-1.4,0.8c-0.2,0.3-0.3,0.8-0.3,1.2
					c0,1,0.5,2.3,1.7,2.3c1.2,0,1.6-1.1,1.6-2.2C40.1,40.2,39.7,39,38.4,39z"/>
			</g>
			<g>
				<path class="st15" d="M43.2,41.3c0,1.4,1,2,2.1,2c0.8,0,1.3-0.1,1.7-0.3l0.2,0.8c-0.4,0.2-1,0.4-2,0.4c-1.8,0-3-1.2-3-2.9
					c0-1.8,1.1-3.1,2.8-3.1c2,0,2.5,1.7,2.5,2.7c0,0.2,0,0.4,0,0.5H43.2z M46.4,40.5c0-0.7-0.3-1.7-1.5-1.7c-1.1,0-1.6,1-1.7,1.7
					H46.4z"/>
			</g>
			<g>
				<path class="st15" d="M49.4,40.6h0.5c0.9,0,1.5-0.4,1.5-0.9c0-0.5-0.5-0.8-1.2-0.8c-0.5,0-1,0.2-1.5,0.4l-0.3-0.6
					c0.6-0.4,1.3-0.5,2-0.5c0.9,0,2,0.4,2,1.5c0,0.7-0.7,1.2-1.4,1.3v0c0.9,0.1,1.6,0.6,1.6,1.5c0,1.3-1.3,1.7-2.6,1.7
					c-0.7,0-1.4-0.2-1.9-0.5l0.3-0.7c0.4,0.2,1,0.4,1.6,0.4c0.9,0,1.5-0.4,1.5-1c0-0.8-0.8-1-1.7-1h-0.5V40.6z"/>
			</g>
			<g>
				<path class="st15" d="M59.6,41c0,2.2-1.5,3.1-3,3.1c-1.6,0-2.9-1.2-2.9-3c0-1.9,1.3-3.1,3-3.1C58.5,38,59.6,39.3,59.6,41z
					 M54.9,41.1c0,1.3,0.8,2.2,1.8,2.2c1,0,1.8-0.9,1.8-2.3c0-1-0.5-2.2-1.8-2.2C55.4,38.8,54.9,40,54.9,41.1z"/>
			</g>
			<g>
				<path class="st15" d="M65.9,38.2V44h-1.1v-5h-2.8v5H61v-5.8H65.9z"/>
			</g>
			<g>
				<path class="st15" d="M71,44L71,43.3h0c-0.3,0.5-1,0.9-1.8,0.9c-1.2,0-1.8-0.8-1.8-1.7c0-1.4,1.3-2.2,3.6-2.2v-0.1
					c0-0.5-0.1-1.3-1.4-1.3c-0.6,0-1.1,0.2-1.6,0.4l-0.2-0.7c0.5-0.3,1.2-0.5,2-0.5c1.8,0,2.3,1.2,2.3,2.4v2.2c0,0.5,0,1,0.1,1.4H71
					z M70.9,41c-1.2,0-2.5,0.2-2.5,1.3c0,0.7,0.5,1,1,1c0.8,0,1.3-0.5,1.5-1c0-0.1,0.1-0.2,0.1-0.3V41z"/>
			</g>
			<g>
				<path class="st15" d="M78,43.8c-0.3,0.1-0.9,0.3-1.7,0.3c-1.8,0-3-1.2-3-3c0-1.8,1.3-3.1,3.2-3.1c0.6,0,1.2,0.2,1.5,0.3
					l-0.2,0.8c-0.3-0.1-0.7-0.3-1.3-0.3c-1.4,0-2.1,1-2.1,2.2c0,1.3,0.9,2.2,2.1,2.2c0.6,0,1-0.2,1.3-0.3L78,43.8z"/>
			</g>
			<g>
				<path class="st15" d="M80.3,38.2v2.3h2.9v-2.3h1.1V44h-1.1v-2.6h-2.9V44h-1.1v-5.8H80.3z"/>
			</g>
			<g>
				<path class="st15" d="M91.5,41c0,2.2-1.5,3.1-3,3.1c-1.6,0-2.9-1.2-2.9-3c0-1.9,1.3-3.1,3-3.1C90.3,38,91.5,39.3,91.5,41z
					 M86.7,41.1c0,1.3,0.8,2.2,1.8,2.2c1,0,1.8-0.9,1.8-2.3c0-1-0.5-2.2-1.8-2.2S86.7,40,86.7,41.1z"/>
			</g>
			<g>
				<path class="st15" d="M97.1,43.8c-0.3,0.1-0.9,0.3-1.7,0.3c-1.8,0-3-1.2-3-3c0-1.8,1.3-3.1,3.2-3.1c0.6,0,1.2,0.2,1.5,0.3
					l-0.2,0.8c-0.3-0.1-0.7-0.3-1.3-0.3c-1.4,0-2.1,1-2.1,2.2c0,1.3,0.9,2.2,2.1,2.2c0.6,0,1-0.2,1.3-0.3L97.1,43.8z"/>
			</g>
			<g>
				<path class="st15" d="M102.6,38.2V39h-1.9v5h-1.1v-5h-1.9v-0.8H102.6z"/>
			</g>
			<g>
				<path class="st15" d="M104.6,38.2v2.5c0,0.9,0,1.5-0.1,2.3l0,0c0.4-0.7,0.6-1.1,1-1.8l1.9-3h1.3V44h-1v-2.5c0-0.9,0-1.4,0.1-2.4
					h0c-0.4,0.7-0.6,1.2-1,1.8c-0.6,0.9-1.2,2-1.9,3h-1.3v-5.8H104.6z"/>
			</g>
		</g>
	</g>
</g>
<g id="Слой_1__x28_копия_x29_">
	<g>
		<g>
			<path class="st16" d="M79.5,18c0.7-0.5,1.5-1.8,1.1-4.1c-0.5-2.8-3.9-2.7-4-2.7H62v13.7h4.3V14.4l9,0c0.5,0,0.8,0.1,1,0.2
				c0.2,0.2,0.1,0.4,0.1,0.4l0,0.8c0,0.1,0,0.2-0.1,0.3c-0.2,0.2-0.7,0.2-0.9,0.2h-9.1l3.3,3.3h5.9c0.4,0,0.6,0.1,0.8,0.2
				c0.1,0.1,0.1,0.2,0.1,0.3l0,0.9c0,0.2,0,0.3-0.1,0.4c-0.1,0.2-0.4,0.2-0.4,0.2h-9.6l3.2,3.2h8c0.9,0,1.7-0.3,2.2-0.9
				c1.1-1.2,1-3,0.9-3.4C80.6,19.5,80.2,18.6,79.5,18z"/>
			<rect x="55.4" y="11.2" class="st16" width="4.2" height="13.7"/>
			<polygon class="st16" points="102.4,14.5 109.4,14.5 109.5,24.9 113.9,24.9 113.9,14.5 120.9,14.5 120.9,11.2 102.4,11.2 			"/>
			<polygon class="st16" points="180,14.4 180,11.1 163.5,11.1 163.5,24.8 180,24.8 180,21.6 167.8,21.6 167.8,19.6 177.3,19.6 
				177.2,16.3 167.8,16.3 167.8,14.4 			"/>
			<path class="st16" d="M160,19c0.1,0,0.1-0.1,0.2-0.1c1-0.5,1.1-0.7,0.9-3.9c0-1.2-0.3-2.2-1-2.8c-1.1-1-2.8-0.9-2.9-0.9
				l-14.7-0.1V25l4.3-0.1v-7.4l3.4,3.2h6c0.3,0,0.5,0.1,0.7,0.2c0.2,0.2,0.1,0.6,0.1,0.6l0,3.4h4.2l0-3.5
				C161.2,21.5,161.4,19.8,160,19z M146.8,14.5h8.9c0.9,0,1.2,0.2,1.3,0.3c0.1,0.2,0.1,0.3,0.1,0.3l0,1.4c0,0.4-0.1,0.6-0.3,0.8
				c-0.2,0.1-0.5,0.1-0.5,0.1l-9.5,0V14.5z"/>
			<polygon class="st16" points="48.7,11.2 40,16.2 40,11.2 35.6,11.2 35.6,24.8 39.9,24.9 39.9,19.8 48.5,24.9 55.1,24.9 43.5,18 
				55.2,11.2 			"/>
			<path class="st16" d="M101,19.5c-0.4-3.2-3.5-3-3.5-3h-9.8c-0.7,0-1.2-0.1-1.2-1.2c0-1.1,0.6-1.1,0.6-1.1h13.1v-2.8H87.6
				c-2.3-0.2-3.3,0.3-4.2,1.1c-0.9,0.9-0.7,3-0.7,3v1.1c0.4,3,3.3,2.9,3.3,2.9h10.2c1.3,0,1,0.8,1,0.8v0.6c0.1,0.9-0.8,1-0.8,1H83
				v2.9h14.2c3.8,0.3,3.8-3.2,3.8-3.2V19.5z"/>
			<path class="st16" d="M136.4,11.2l-10.1,0c-0.1,0-1.8-0.1-3,1c-0.8,0.7-1.2,1.7-1.2,3.1c0,1.2,0,2.2,0,3.2c0,1.9,0,2.8,0,2.8
				c0,0,0.1,3.4,4.6,3.7l9.8,0c0,0,4.2-0.3,4.2-4.6l0-5.1C140.6,15.2,140.1,11.2,136.4,11.2z M136.4,20.7c0,0,0.1,0.3-0.1,0.5
				c-0.1,0.2-0.4,0.3-0.8,0.3l-8.8,0c0,0-0.1,0-0.2-0.1c-0.1-0.1-0.2-0.3-0.2-0.5l0-5.9c0-0.1,0.1-0.7,0.9-0.7l8.4,0
				c0,0,0.8,0.1,0.8,0.9L136.4,20.7L136.4,20.7z"/>
		</g>
	</g>
	<g class="st0">
		<path class="st17" d="M39.8,28.2v0.9h-2.5v5h-1v-5.8H39.8z"/>
		<path class="st17" d="M42,26.6c0,0.4-0.3,0.6-0.7,0.6c-0.4,0-0.6-0.3-0.6-0.6c0-0.4,0.3-0.7,0.7-0.7C41.7,25.9,42,26.2,42,26.6z
			 M40.8,34v-5.8h1.1V34H40.8z"/>
		<path class="st17" d="M48.4,28.2V34h-1.1v-5h-2.7v5h-1v-5.8H48.4z"/>
		<path class="st17" d="M50.7,31.3c0,1.4,0.9,2,2,2c0.8,0,1.2-0.1,1.6-0.3l0.2,0.8c-0.4,0.2-1,0.4-1.9,0.4c-1.8,0-2.9-1.2-2.9-2.9
			s1-3.1,2.7-3.1c1.9,0,2.4,1.7,2.4,2.7c0,0.2,0,0.4,0,0.5H50.7z M53.8,30.6c0-0.7-0.3-1.7-1.5-1.7c-1.1,0-1.5,1-1.6,1.7H53.8z"/>
		<path class="st17" d="M56.1,30.1c0-0.7,0-1.3,0-1.9H57l0,1h0c0.4-0.7,1.1-1.1,2.1-1.1c1.4,0,2.5,1.2,2.5,3c0,2.1-1.3,3.1-2.6,3.1
			c-0.8,0-1.4-0.3-1.8-0.9h0v3.2h-1V30.1z M57.2,31.7c0,0.2,0,0.3,0,0.4c0.2,0.7,0.8,1.2,1.6,1.2c1.1,0,1.8-0.9,1.8-2.2
			c0-1.2-0.6-2.2-1.7-2.2c-0.7,0-1.4,0.5-1.6,1.3c0,0.1-0.1,0.3-0.1,0.4V31.7z"/>
		<path class="st17" d="M63,28.2h1.3l1.1,2.9c0.1,0.4,0.4,1.1,0.5,1.6h0c0.1-0.4,0.5-1.4,0.7-2l0.9-2.5h1.3l0.4,5.8h-1l-0.1-2.8
			c0-0.6-0.1-1.4-0.1-2.1h0c-0.2,0.5-0.3,1-0.6,1.9L66.2,34h-0.8l-1-2.9c-0.2-0.6-0.4-1.4-0.6-1.9h0c0,0.7-0.1,1.5-0.1,2.1L63.5,34
			h-1L63,28.2z"/>
		<path class="st17" d="M73.8,34l-0.1-0.7h0c-0.3,0.5-0.9,0.9-1.8,0.9c-1.2,0-1.8-0.8-1.8-1.7c0-1.4,1.2-2.2,3.5-2.2v-0.1
			c0-0.5-0.1-1.3-1.3-1.3c-0.5,0-1.1,0.2-1.5,0.4l-0.2-0.7c0.5-0.3,1.2-0.5,1.9-0.5c1.8,0,2.2,1.2,2.2,2.4v2.2c0,0.5,0,1,0.1,1.4
			H73.8z M73.7,31.1c-1.2,0-2.5,0.2-2.5,1.3c0,0.7,0.5,1,1,1c0.8,0,1.2-0.5,1.4-1c0-0.1,0.1-0.2,0.1-0.3V31.1z"/>
		<path class="st17" d="M76.4,30.1c0-0.7,0-1.3,0-1.9h0.9l0,1h0c0.4-0.7,1.1-1.1,2.1-1.1c1.4,0,2.5,1.2,2.5,3c0,2.1-1.3,3.1-2.6,3.1
			c-0.8,0-1.4-0.3-1.8-0.9h0v3.2h-1V30.1z M77.4,31.7c0,0.2,0,0.3,0,0.4c0.2,0.7,0.8,1.2,1.6,1.2c1.1,0,1.8-0.9,1.8-2.2
			c0-1.2-0.6-2.2-1.7-2.2c-0.7,0-1.4,0.5-1.6,1.3c0,0.1-0.1,0.3-0.1,0.4V31.7z"/>
		<path class="st17" d="M84.3,28.2v2.5h0.3l2.2-2.5H88l-2.5,2.6c0.9,0.1,1.5,0.7,2,1.8c0.2,0.4,0.4,0.9,0.6,1.4h-1.1
			c-0.2-0.3-0.4-0.7-0.5-1.2c-0.4-0.9-0.9-1.4-1.9-1.4h-0.2V34h-1v-5.8H84.3z"/>
		<path class="st17" d="M89.5,31.3c0,1.4,0.9,2,2,2c0.8,0,1.2-0.1,1.6-0.3l0.2,0.8c-0.4,0.2-1,0.4-1.9,0.4c-1.8,0-2.9-1.2-2.9-2.9
			s1-3.1,2.7-3.1c1.9,0,2.4,1.7,2.4,2.7c0,0.2,0,0.4,0,0.5H89.5z M92.6,30.6c0-0.7-0.3-1.7-1.5-1.7c-1.1,0-1.5,1-1.6,1.7H92.6z"/>
		<path class="st17" d="M98.8,28.2v0.8H97v5h-1v-5h-1.8v-0.8H98.8z"/>
		<path class="st17" d="M106.5,33.8c-0.3,0.1-0.9,0.3-1.7,0.3c-1.8,0-2.9-1.2-2.9-3c0-1.8,1.2-3.1,3.1-3.1c0.6,0,1.2,0.2,1.5,0.3
			l-0.2,0.8c-0.3-0.1-0.6-0.3-1.2-0.3c-1.3,0-2.1,1-2.1,2.2c0,1.3,0.9,2.2,2,2.2c0.6,0,1-0.2,1.3-0.3L106.5,33.8z"/>
		<path class="st17" d="M108.7,28.2v2.4c0,0.9,0,1.5-0.1,2.3l0,0c0.3-0.7,0.6-1.1,0.9-1.8l1.8-3h1.2V34h-1v-2.5c0-0.9,0-1.4,0.1-2.4
			h0c-0.4,0.7-0.6,1.2-1,1.8c-0.6,0.9-1.2,2-1.8,3h-1.2v-5.8H108.7z"/>
		<path class="st17" d="M118.5,33.8c-0.3,0.1-0.9,0.3-1.7,0.3c-1.8,0-2.9-1.2-2.9-3c0-1.8,1.2-3.1,3.1-3.1c0.6,0,1.2,0.2,1.5,0.3
			l-0.2,0.8c-0.3-0.1-0.6-0.3-1.2-0.3c-1.3,0-2.1,1-2.1,2.2c0,1.3,0.9,2.2,2,2.2c0.6,0,1-0.2,1.3-0.3L118.5,33.8z"/>
		<path class="st17" d="M123.9,28.2v0.8H122v5h-1v-5h-1.8v-0.8H123.9z"/>
		<path class="st17" d="M125.2,31.3c0,1.4,0.9,2,2,2c0.8,0,1.2-0.1,1.6-0.3l0.2,0.8c-0.4,0.2-1,0.4-1.9,0.4c-1.8,0-2.9-1.2-2.9-2.9
			s1-3.1,2.7-3.1c1.9,0,2.4,1.7,2.4,2.7c0,0.2,0,0.4,0,0.5H125.2z M128.3,30.6c0-0.7-0.3-1.7-1.5-1.7c-1.1,0-1.5,1-1.6,1.7H128.3z"
			/>
		<path class="st17" d="M130.7,28.2h1.3l1.1,2.9c0.1,0.4,0.4,1.1,0.5,1.6h0c0.1-0.4,0.5-1.4,0.7-2l0.9-2.5h1.3l0.4,5.8h-1l-0.1-2.8
			c0-0.6-0.1-1.4-0.1-2.1h0c-0.2,0.5-0.3,1-0.6,1.9l-1.1,2.9h-0.8l-1-2.9c-0.2-0.6-0.4-1.4-0.6-1.9h0c0,0.7-0.1,1.5-0.1,2.1
			l-0.1,2.7h-1L130.7,28.2z"/>
		<path class="st17" d="M40.7,36.3c-0.3,0.1-0.8,0.2-1.2,0.3c-0.9,0.1-1.6,0.5-2.1,1.1c-0.4,0.5-0.6,1.3-0.6,1.9h0
			c0.4-0.8,1.2-1.3,2-1.3c1.4,0,2.5,1,2.5,2.9c0,1.9-1,3.1-2.7,3.1c-2,0-2.7-2-2.7-3.9c0-1.3,0.3-2.4,0.9-3.2
			c0.6-0.8,1.4-1.2,2.5-1.4c0.5-0.1,1-0.2,1.4-0.3L40.7,36.3z M38.6,39c-0.6,0-1.1,0.3-1.3,0.8C37.1,40.2,37,40.6,37,41
			c0,1,0.5,2.3,1.6,2.3c1.2,0,1.6-1.1,1.6-2.2C40.2,40.2,39.8,39,38.6,39z"/>
		<path class="st17" d="M43.2,41.3c0,1.4,0.9,2,2,2c0.8,0,1.2-0.1,1.6-0.3l0.2,0.8c-0.4,0.2-1,0.4-1.9,0.4c-1.8,0-2.9-1.2-2.9-2.9
			s1-3.1,2.7-3.1c1.9,0,2.4,1.7,2.4,2.7c0,0.2,0,0.4,0,0.5H43.2z M46.3,40.6c0-0.7-0.3-1.7-1.5-1.7c-1.1,0-1.5,1-1.6,1.7H46.3z"/>
		<path class="st17" d="M49.1,40.7h0.5c0.9,0,1.5-0.4,1.5-0.9c0-0.5-0.5-0.8-1.1-0.8c-0.5,0-1,0.2-1.4,0.4l-0.3-0.6
			c0.6-0.4,1.3-0.5,1.9-0.5c0.9,0,2,0.4,2,1.5c0,0.7-0.7,1.2-1.3,1.3v0c0.9,0.1,1.6,0.6,1.6,1.5c0,1.3-1.3,1.7-2.5,1.7
			c-0.7,0-1.4-0.2-1.9-0.5l0.3-0.7c0.4,0.2,1,0.4,1.5,0.4c0.9,0,1.4-0.4,1.4-1c0-0.8-0.8-1-1.7-1h-0.5V40.7z"/>
		<path class="st17" d="M58.6,38.2V44h-1.1v-5h-2.7v5h-1v-5.8H58.6z"/>
		<path class="st17" d="M60.9,41.3c0,1.4,0.9,2,2,2c0.8,0,1.2-0.1,1.6-0.3l0.2,0.8c-0.4,0.2-1,0.4-1.9,0.4c-1.8,0-2.9-1.2-2.9-2.9
			s1-3.1,2.7-3.1c1.9,0,2.4,1.7,2.4,2.7c0,0.2,0,0.4,0,0.5H60.9z M64,40.6c0-0.7-0.3-1.7-1.5-1.7c-1.1,0-1.5,1-1.6,1.7H64z"/>
		<path class="st17" d="M67.4,38.2v2.5h0.3l2.2-2.5h1.3l-2.5,2.6c0.9,0.1,1.5,0.7,2,1.8c0.2,0.4,0.4,0.9,0.6,1.4H70
			c-0.2-0.3-0.4-0.7-0.5-1.2c-0.4-0.9-0.9-1.4-1.9-1.4h-0.2V44h-1v-5.8H67.4z"/>
		<path class="st17" d="M73.1,38.2v2.4c0,0.9,0,1.5-0.1,2.3l0,0c0.3-0.7,0.6-1.1,0.9-1.8l1.8-3H77V44h-1v-2.5c0-0.9,0-1.4,0.1-2.4h0
			c-0.4,0.7-0.6,1.2-1,1.8c-0.6,0.9-1.2,2-1.8,3h-1.2v-5.8H73.1z"/>
	</g>
	<polygon class="st16" points="7.4,39.9 0.7,34.3 0.7,0.9 7.4,6.7 	"/>
	<polygon class="st16" points="17.6,48.9 10.8,43.3 10.8,9.9 17.6,15.7 	"/>
	<polygon class="st16" points="27.5,40.4 20.8,34.8 20.8,1.3 27.5,7.2 	"/>
</g>
</svg>
